<!-- Generated by IcoMoon.io -->
<svg version="1.1" xmlns="http://www.w3.org/2000/svg" width="42" height="42" viewBox="0 0 42 42">
<title>loop2</title>
<path fill="#212121" d="M36.491 6.822c-3.839-4.192-9.358-6.822-15.491-6.822-11.598 0-21 9.402-21 21h3.938c0-9.423 7.639-17.063 17.063-17.063 5.046 0 9.579 2.191 12.702 5.673l-6.14 6.14h14.437v-14.438l-5.509 5.509z"></path>
<path fill="#212121" d="M38.063 21c0 9.423-7.639 17.063-17.063 17.063-5.046 0-9.579-2.191-12.702-5.673l6.14-6.14h-14.438v14.438l5.509-5.509c3.839 4.192 9.358 6.822 15.491 6.822 11.598 0 21-9.402 21-21h-3.938z"></path>
</svg>
